<svg xmlns="http://www.w3.org/2000/svg" viewBox="0 0 43.37 26.26"><g id="Layer_2" data-name="Layer 2"><g id="Layer_1-2" data-name="Layer 1"><path d="M14.74,0l2.83,4.85q5.78,10,11.54,20c.19.33.81,1,.22,1.31s-.76-.59-1-1C24.05,17.8,19.71,10.42,15.43,3a13.58,13.58,0,0,0-.78-1.13c-1.37,2.34-2.73,4.67-4.08,7Q5.89,17,1.22,25.09c-.1.18-.19.35-.3.53C.7,26,.54,26.14.21,26s-.14-.54,0-.79C3,20.39,5.73,15.62,8.49,10.85,10.54,7.29,12.59,3.72,14.74,0Z" fill="#011627"/><path d="M14.75,10.58c1.38,2.39,2.66,4.59,3.94,6.79q2.22,3.84,4.42,7.69c.16.29.55.75.08,1.05s-.61-.27-.83-.66L16,14.34c-.35-.62-.72-1.23-1.19-2-.56.93-1,1.71-1.51,2.52q-3,5.19-6,10.38l-.18.31c-.24.41-.59.73-.82.59-.41-.24-.07-.71.07-1,1.8-3.16,3.63-6.3,5.44-9.45Z" fill="#011627"/><path d="M28.58,5.69c2,0,3.91,0,5.87,0a3.49,3.49,0,1,1,.11,7c-2.92.05-5.84,0-8.75,0-.47,0-.87.09-.85-.47s.53-.38.89-.38c2.75,0,5.51,0,8.27,0,1.9,0,3.07-1,3.1-2.58S36,6.5,34.12,6.49H22.73c-.31,0-.63,0-.95,0s-.54-.17-.5-.48.37-.3.58-.3C24.1,5.68,26.34,5.69,28.58,5.69Z" fill="#e71d36"/><path d="M36.28,25.88c-.69.41-.72,0-1-.49-1.19-2.07-2.44-4.11-3.56-6.23a2,2,0,0,0-2.14-1.22c-.58,0-1.51.06-1.5-.49s1-.44,1.49-.42c1.73.07,2.33.48,3,1.87,1,2,2.23,4,3.36,5.93C36.17,25.2,36.41,25.64,36.28,25.88Z" fill="#e71d36"/><path d="M27.26.4h7.19a8.76,8.76,0,0,1,4.21,16.52c-.81.43-.75.73-.33,1.41,1.34,2.22,2.62,4.48,3.89,6.75.15.28.42.66.15.85-.45.3-.7-.13-.92-.52l-3.89-6.75c-.93-1.61-.93-1.6.64-2.42a8,8,0,0,0-3.5-15c-4.88-.05-9.76,0-14.64,0h-.84c-.39,0-.94.16-.94-.36s.61-.42.94-.42c2.68,0,5.36,0,8,0Z" fill="#e71d36"/></g></g></svg>